<mxfile host="app.diagrams.net" modified="2022-03-19T11:05:06.184Z" agent="5.0 (Windows NT 10.0; Win64; x64) AppleWebKit/537.36 (KHTML, like Gecko) Chrome/99.0.4844.74 Safari/537.36" etag="Rzlh4HxgpKwZ_KPMvczr" version="17.1.3" type="github">
  <diagram name="Page-1" id="b5b7bab2-c9e2-2cf4-8b2a-24fd1a2a6d21">
    <mxGraphModel dx="813" dy="454" grid="1" gridSize="10" guides="1" tooltips="1" connect="1" arrows="1" fold="1" page="1" pageScale="1" pageWidth="827" pageHeight="1169" background="none" math="0" shadow="0">
      <root>
        <mxCell id="0" />
        <mxCell id="1" parent="0" />
        <mxCell id="5kwqAGzHCGocQKJuiB-L-2" value="User" style="swimlane;fontStyle=0;childLayout=stackLayout;horizontal=1;startSize=26;fillColor=none;horizontalStack=0;resizeParent=1;resizeParentMax=0;resizeLast=0;collapsible=1;marginBottom=0;" vertex="1" parent="1">
          <mxGeometry x="70" y="50" width="140" height="52" as="geometry" />
        </mxCell>
        <mxCell id="5kwqAGzHCGocQKJuiB-L-10" value="Datenvorlage" style="swimlane;fontStyle=0;childLayout=stackLayout;horizontal=1;startSize=26;fillColor=none;horizontalStack=0;resizeParent=1;resizeParentMax=0;resizeLast=0;collapsible=1;marginBottom=0;" vertex="1" parent="1">
          <mxGeometry x="284" y="70" width="140" height="52" as="geometry" />
        </mxCell>
        <mxCell id="5kwqAGzHCGocQKJuiB-L-11" value="Externe Quelle" style="swimlane;fontStyle=0;childLayout=stackLayout;horizontal=1;startSize=26;fillColor=none;horizontalStack=0;resizeParent=1;resizeParentMax=0;resizeLast=0;collapsible=1;marginBottom=0;" vertex="1" parent="1">
          <mxGeometry x="60" y="170" width="140" height="52" as="geometry" />
        </mxCell>
        <mxCell id="5kwqAGzHCGocQKJuiB-L-12" value="Zeile" style="swimlane;fontStyle=0;childLayout=stackLayout;horizontal=1;startSize=26;fillColor=none;horizontalStack=0;resizeParent=1;resizeParentMax=0;resizeLast=0;collapsible=1;marginBottom=0;" vertex="1" parent="1">
          <mxGeometry x="400" y="290" width="140" height="52" as="geometry" />
        </mxCell>
        <mxCell id="5kwqAGzHCGocQKJuiB-L-13" value="Optionen" style="swimlane;fontStyle=0;childLayout=stackLayout;horizontal=1;startSize=26;fillColor=none;horizontalStack=0;resizeParent=1;resizeParentMax=0;resizeLast=0;collapsible=1;marginBottom=0;" vertex="1" parent="1">
          <mxGeometry x="250" y="170" width="140" height="52" as="geometry" />
        </mxCell>
        <mxCell id="5kwqAGzHCGocQKJuiB-L-14" value="Datentyp" style="swimlane;fontStyle=0;childLayout=stackLayout;horizontal=1;startSize=26;fillColor=none;horizontalStack=0;resizeParent=1;resizeParentMax=0;resizeLast=0;collapsible=1;marginBottom=0;" vertex="1" parent="1">
          <mxGeometry x="400" y="480" width="140" height="52" as="geometry" />
        </mxCell>
        <mxCell id="5kwqAGzHCGocQKJuiB-L-15" value="Technischer Datentyp" style="swimlane;fontStyle=0;childLayout=stackLayout;horizontal=1;startSize=26;fillColor=none;horizontalStack=0;resizeParent=1;resizeParentMax=0;resizeLast=0;collapsible=1;marginBottom=0;" vertex="1" parent="1">
          <mxGeometry x="319" y="642" width="140" height="52" as="geometry" />
        </mxCell>
        <mxCell id="5kwqAGzHCGocQKJuiB-L-16" value="Fachlicher Datentyp" style="swimlane;fontStyle=0;childLayout=stackLayout;horizontal=1;startSize=26;fillColor=none;horizontalStack=0;resizeParent=1;resizeParentMax=0;resizeLast=0;collapsible=1;marginBottom=0;" vertex="1" parent="1">
          <mxGeometry x="470" y="642" width="140" height="52" as="geometry" />
        </mxCell>
        <mxCell id="5kwqAGzHCGocQKJuiB-L-19" value="Ausgabeformat" style="swimlane;fontStyle=0;childLayout=stackLayout;horizontal=1;startSize=26;fillColor=none;horizontalStack=0;resizeParent=1;resizeParentMax=0;resizeLast=0;collapsible=1;marginBottom=0;" vertex="1" parent="1">
          <mxGeometry x="470" y="180" width="140" height="52" as="geometry" />
        </mxCell>
        <mxCell id="5kwqAGzHCGocQKJuiB-L-20" value="Optionen" style="swimlane;fontStyle=0;childLayout=stackLayout;horizontal=1;startSize=26;fillColor=none;horizontalStack=0;resizeParent=1;resizeParentMax=0;resizeLast=0;collapsible=1;marginBottom=0;" vertex="1" parent="1">
          <mxGeometry x="610" y="180" width="140" height="52" as="geometry" />
        </mxCell>
        <mxCell id="5kwqAGzHCGocQKJuiB-L-22" value="" style="endArrow=diamondThin;endFill=1;endSize=24;html=1;rounded=0;entryX=0.75;entryY=1;entryDx=0;entryDy=0;exitX=0.25;exitY=0;exitDx=0;exitDy=0;" edge="1" parent="1" source="5kwqAGzHCGocQKJuiB-L-16" target="5kwqAGzHCGocQKJuiB-L-14">
          <mxGeometry width="160" relative="1" as="geometry">
            <mxPoint x="590" y="547" as="sourcePoint" />
            <mxPoint x="750" y="547" as="targetPoint" />
          </mxGeometry>
        </mxCell>
        <mxCell id="5kwqAGzHCGocQKJuiB-L-23" value="1..*" style="edgeLabel;html=1;align=center;verticalAlign=middle;resizable=0;points=[];" vertex="1" connectable="0" parent="5kwqAGzHCGocQKJuiB-L-22">
          <mxGeometry x="-0.675" y="3" relative="1" as="geometry">
            <mxPoint as="offset" />
          </mxGeometry>
        </mxCell>
        <mxCell id="5kwqAGzHCGocQKJuiB-L-24" value="1" style="edgeLabel;html=1;align=center;verticalAlign=middle;resizable=0;points=[];" vertex="1" connectable="0" parent="5kwqAGzHCGocQKJuiB-L-22">
          <mxGeometry x="0.8" y="-1" relative="1" as="geometry">
            <mxPoint x="-24" as="offset" />
          </mxGeometry>
        </mxCell>
        <mxCell id="5kwqAGzHCGocQKJuiB-L-26" value="" style="endArrow=diamondThin;endFill=1;endSize=24;html=1;rounded=0;exitX=0.75;exitY=0;exitDx=0;exitDy=0;entryX=0.25;entryY=1;entryDx=0;entryDy=0;" edge="1" parent="1" source="5kwqAGzHCGocQKJuiB-L-15" target="5kwqAGzHCGocQKJuiB-L-14">
          <mxGeometry width="160" relative="1" as="geometry">
            <mxPoint x="400" y="607" as="sourcePoint" />
            <mxPoint x="380" y="577" as="targetPoint" />
          </mxGeometry>
        </mxCell>
        <mxCell id="5kwqAGzHCGocQKJuiB-L-27" value="1" style="edgeLabel;html=1;align=center;verticalAlign=middle;resizable=0;points=[];" vertex="1" connectable="0" parent="5kwqAGzHCGocQKJuiB-L-26">
          <mxGeometry x="-0.675" y="3" relative="1" as="geometry">
            <mxPoint as="offset" />
          </mxGeometry>
        </mxCell>
        <mxCell id="5kwqAGzHCGocQKJuiB-L-28" value="1" style="edgeLabel;html=1;align=center;verticalAlign=middle;resizable=0;points=[];" vertex="1" connectable="0" parent="5kwqAGzHCGocQKJuiB-L-26">
          <mxGeometry x="0.8" y="-1" relative="1" as="geometry">
            <mxPoint x="-24" as="offset" />
          </mxGeometry>
        </mxCell>
        <mxCell id="5kwqAGzHCGocQKJuiB-L-29" value="{abstract}&#xa;Constraint" style="swimlane;fontStyle=0;childLayout=stackLayout;horizontal=1;startSize=40;fillColor=none;horizontalStack=0;resizeParent=1;resizeParentMax=0;resizeLast=0;collapsible=1;marginBottom=0;" vertex="1" parent="1">
          <mxGeometry x="319" y="827" width="140" height="70" as="geometry" />
        </mxCell>
        <mxCell id="5kwqAGzHCGocQKJuiB-L-30" value="" style="endArrow=diamondThin;endFill=1;endSize=24;html=1;rounded=0;entryX=0.5;entryY=1;entryDx=0;entryDy=0;exitX=0.5;exitY=0;exitDx=0;exitDy=0;" edge="1" parent="1" source="5kwqAGzHCGocQKJuiB-L-29" target="5kwqAGzHCGocQKJuiB-L-15">
          <mxGeometry width="160" relative="1" as="geometry">
            <mxPoint x="159" y="727" as="sourcePoint" />
            <mxPoint x="319" y="727" as="targetPoint" />
          </mxGeometry>
        </mxCell>
        <mxCell id="5kwqAGzHCGocQKJuiB-L-31" value="0..1" style="edgeLabel;html=1;align=center;verticalAlign=middle;resizable=0;points=[];" vertex="1" connectable="0" parent="5kwqAGzHCGocQKJuiB-L-30">
          <mxGeometry x="-0.8228" y="-1" relative="1" as="geometry">
            <mxPoint as="offset" />
          </mxGeometry>
        </mxCell>
        <mxCell id="5kwqAGzHCGocQKJuiB-L-32" value="1" style="edgeLabel;html=1;align=center;verticalAlign=middle;resizable=0;points=[];" vertex="1" connectable="0" parent="5kwqAGzHCGocQKJuiB-L-30">
          <mxGeometry x="0.4703" relative="1" as="geometry">
            <mxPoint y="16" as="offset" />
          </mxGeometry>
        </mxCell>
        <mxCell id="5kwqAGzHCGocQKJuiB-L-33" value="Range-Constraint" style="swimlane;fontStyle=0;childLayout=stackLayout;horizontal=1;startSize=26;fillColor=none;horizontalStack=0;resizeParent=1;resizeParentMax=0;resizeLast=0;collapsible=1;marginBottom=0;" vertex="1" parent="1">
          <mxGeometry x="190" y="987" width="140" height="52" as="geometry" />
        </mxCell>
        <mxCell id="5kwqAGzHCGocQKJuiB-L-34" value="Length-Constraint" style="swimlane;fontStyle=0;childLayout=stackLayout;horizontal=1;startSize=26;fillColor=none;horizontalStack=0;resizeParent=1;resizeParentMax=0;resizeLast=0;collapsible=1;marginBottom=0;" vertex="1" parent="1">
          <mxGeometry x="459" y="987" width="140" height="52" as="geometry" />
        </mxCell>
        <mxCell id="5kwqAGzHCGocQKJuiB-L-35" value="Extends" style="endArrow=block;endSize=16;endFill=0;html=1;rounded=0;exitX=0.5;exitY=0;exitDx=0;exitDy=0;entryX=0.25;entryY=1;entryDx=0;entryDy=0;" edge="1" parent="1" source="5kwqAGzHCGocQKJuiB-L-33" target="5kwqAGzHCGocQKJuiB-L-29">
          <mxGeometry width="160" relative="1" as="geometry">
            <mxPoint x="250" y="957" as="sourcePoint" />
            <mxPoint x="410" y="957" as="targetPoint" />
          </mxGeometry>
        </mxCell>
        <mxCell id="5kwqAGzHCGocQKJuiB-L-36" value="Extends" style="endArrow=block;endSize=16;endFill=0;html=1;rounded=0;exitX=0.25;exitY=0;exitDx=0;exitDy=0;entryX=0.25;entryY=1;entryDx=0;entryDy=0;" edge="1" parent="1" source="5kwqAGzHCGocQKJuiB-L-34">
          <mxGeometry width="160" relative="1" as="geometry">
            <mxPoint x="330" y="987" as="sourcePoint" />
            <mxPoint x="424" y="897" as="targetPoint" />
          </mxGeometry>
        </mxCell>
        <mxCell id="5kwqAGzHCGocQKJuiB-L-37" value="" style="endArrow=diamondThin;endFill=1;endSize=24;html=1;rounded=0;entryX=0.5;entryY=1;entryDx=0;entryDy=0;exitX=0.5;exitY=0;exitDx=0;exitDy=0;" edge="1" parent="1" source="5kwqAGzHCGocQKJuiB-L-14" target="5kwqAGzHCGocQKJuiB-L-12">
          <mxGeometry width="160" relative="1" as="geometry">
            <mxPoint x="130" y="430" as="sourcePoint" />
            <mxPoint x="290" y="430" as="targetPoint" />
          </mxGeometry>
        </mxCell>
        <mxCell id="5kwqAGzHCGocQKJuiB-L-38" value="1" style="edgeLabel;html=1;align=center;verticalAlign=middle;resizable=0;points=[];" vertex="1" connectable="0" parent="5kwqAGzHCGocQKJuiB-L-37">
          <mxGeometry x="0.354" y="1" relative="1" as="geometry">
            <mxPoint as="offset" />
          </mxGeometry>
        </mxCell>
        <mxCell id="5kwqAGzHCGocQKJuiB-L-39" value="1" style="edgeLabel;html=1;align=center;verticalAlign=middle;resizable=0;points=[];" vertex="1" connectable="0" parent="5kwqAGzHCGocQKJuiB-L-37">
          <mxGeometry x="-0.6066" y="2" relative="1" as="geometry">
            <mxPoint as="offset" />
          </mxGeometry>
        </mxCell>
      </root>
    </mxGraphModel>
  </diagram>
</mxfile>
